<svg width="120" height="120" viewBox="0 0 120 120" fill="none" xmlns="http://www.w3.org/2000/svg">
  <defs>
    <radialGradient id="glowRed" cx="50%" cy="50%">
      <stop offset="0%" style="stop-color:#ff6b6b;stop-opacity:0.8" />
      <stop offset="50%" style="stop-color:#ff4444;stop-opacity:0.4" />
      <stop offset="100%" style="stop-color:#000000;stop-opacity:0" />
    </radialGradient>
  </defs>
  <circle cx="60" cy="60" r="50" fill="url(#glowRed)"/>
  <rect x="45" y="30" width="30" height="40" rx="15" fill="none" stroke="#ff6b6b" stroke-width="3"/>
  <rect x="48" y="33" width="24" height="34" rx="12" fill="#ffcccc" opacity="0.3"/>
  <path d="M60 48 C60 45, 57 43, 55 45 C53 47, 53 49, 55 52 L60 57 L65 52 C67 49, 67 47, 65 45 C63 43, 60 45, 60 48 Z" fill="#ff4444"/>
  <line x1="60" y1="70" x2="60" y2="80" stroke="#ff6b6b" stroke-width="3" stroke-linecap="round"/>
  <line x1="50" y1="80" x2="70" y2="80" stroke="#ff6b6b" stroke-width="3" stroke-linecap="round"/>
  <path d="M25 55 L30 55 L33 48 L36 62 L39 55 L44 55" stroke="#ff6b6b" stroke-width="2.5" fill="none" stroke-linecap="round" stroke-linejoin="round"/>
  <path d="M76 55 L81 55 L84 48 L87 62 L90 55 L95 55" stroke="#ff6b6b" stroke-width="2.5" fill="none" stroke-linecap="round" stroke-linejoin="round"/>
</svg>
