<svg width="120" height="120" viewBox="0 0 120 120" fill="none" xmlns="http://www.w3.org/2000/svg">
  <defs>
    <radialGradient id="glowPink" cx="50%" cy="50%">
      <stop offset="0%" style="stop-color:#ff69b4;stop-opacity:0.8" />
      <stop offset="50%" style="stop-color:#ff1493;stop-opacity:0.4" />
      <stop offset="100%" style="stop-color:#000000;stop-opacity:0" />
    </radialGradient>
  </defs>
  <circle cx="60" cy="60" r="50" fill="url(#glowPink)"/>
  <circle cx="60" cy="60" r="35" fill="none" stroke="#ff1493" stroke-width="3"/>
  <path d="M45 50 Q42 48, 40 50 L38 53 Q36 56, 39 59 L42 62 Q50 70, 58 78 L61 81 Q64 84, 67 82 L70 80 Q72 78, 70 75 L68 70 Q66 67, 63 69 L60 71 Q55 68, 50 63 Q45 58, 42 53 L44 50 Q46 47, 43 45 Z" fill="#ff1493"/>
  <path d="M75 50 Q80 55, 80 60 Q80 65, 75 70" fill="none" stroke="#ff1493" stroke-width="2.5" stroke-linecap="round"/>
  <path d="M82 45 Q90 52, 90 60 Q90 68, 82 75" fill="none" stroke="#ff1493" stroke-width="2.5" stroke-linecap="round"/>
</svg>
